<svg width="30" height="30" viewBox="0 0 30 30" fill="none" xmlns="http://www.w3.org/2000/svg">
<path d="M23.7109 4.66724C24.0148 5.40227 24.5982 5.98652 25.3328 6.29154L27.9086 7.35846C28.6436 7.66295 29.2277 8.24697 29.5322 8.98205C29.8366 9.71714 29.8366 10.5431 29.5322 11.2782L28.466 13.8521C28.1614 14.5875 28.161 15.4143 28.467 16.1493L29.5313 18.7225C29.6822 19.0866 29.7599 19.4768 29.76 19.8709C29.7601 20.2651 29.6825 20.6553 29.5316 21.0195C29.3808 21.3836 29.1597 21.7144 28.881 21.9931C28.6022 22.2717 28.2713 22.4927 27.9072 22.6434L25.3332 23.7096C24.5982 24.0135 24.0139 24.5969 23.7089 25.3314L22.642 27.9072C22.3375 28.6423 21.7535 29.2263 21.0184 29.5308C20.2833 29.8353 19.4574 29.8353 18.7223 29.5308L16.1484 28.4647C15.4133 28.1609 14.5876 28.1615 13.853 28.4664L11.2772 29.5318C10.5425 29.8355 9.71733 29.8353 8.98284 29.5311C8.24836 29.2268 7.66466 28.6435 7.35997 27.9092L6.29273 25.3326C5.98881 24.5976 5.40544 24.0134 4.67087 23.7083L2.09509 22.6414C1.36033 22.3371 0.776482 21.7534 0.471887 21.0188C0.167293 20.2841 0.16688 19.4586 0.470739 18.7236L1.5369 16.1497C1.84063 15.4146 1.84001 14.5889 1.53517 13.8543L0.470545 11.2766C0.319602 10.9126 0.241879 10.5223 0.241816 10.1282C0.241752 9.73406 0.319351 9.34378 0.470176 8.97966C0.621003 8.61553 0.8421 8.28469 1.12083 8.00605C1.39957 7.7274 1.73048 7.50641 2.09465 7.3557L4.66858 6.28954C5.40297 5.98589 5.98687 5.40325 6.29212 4.66953L7.35904 2.09375C7.66352 1.35867 8.24755 0.774644 8.98263 0.470162C9.71771 0.16568 10.5436 0.16568 11.2787 0.470162L13.8527 1.53632C14.5878 1.84005 15.4134 1.83943 16.148 1.53459L18.7249 0.471815C19.4599 0.167504 20.2856 0.167567 21.0206 0.471988C21.7555 0.77641 22.3395 1.36027 22.644 2.09516L23.7112 4.6717L23.7109 4.66724Z" fill="#0788F5"/>
</svg>
