<svg width="15" height="15" viewBox="0 0 15 15" fill="none" xmlns="http://www.w3.org/2000/svg">
<path fill-rule="evenodd" clip-rule="evenodd" d="M14.2665 2.80583C14.4803 2.47006 14.5519 2.06313 14.4656 1.67456C14.3794 1.28598 14.1423 0.947591 13.8065 0.733826C13.4708 0.520062 13.0638 0.448434 12.6753 0.534701C12.2867 0.620968 11.9483 0.858062 11.7345 1.19383L5.86052 10.4238L3.17252 7.06383C2.92402 6.75299 2.56221 6.55361 2.16669 6.50954C1.77118 6.46547 1.37436 6.58032 1.06352 6.82883C0.752689 7.07733 0.553306 7.43914 0.509235 7.83466C0.465163 8.23017 0.580015 8.62699 0.828523 8.93783L4.82852 13.9378C4.97759 14.1244 5.16906 14.2727 5.38699 14.3703C5.60493 14.468 5.84303 14.5122 6.0815 14.4993C6.31996 14.4864 6.5519 14.4167 6.75801 14.2961C6.96413 14.1755 7.13847 14.0074 7.26652 13.8058L14.2665 2.80583Z" fill="white"/>
</svg>
